<svg
	width="534"
	height="534"
	viewBox="0 0 534 534"
	version="1.1"
	xmlns="http://www.w3.org/2000/svg"
	xmlns:xlink="http://www.w3.org/1999/xlink"
>
	<title>Group 5.7</title>
	<desc>Created using Figma</desc>
	<g id="Canvas" transform="translate(-7991 -3674)">
		<g id="Group 5.7">
			<g id="Union">
				<use
					xlink:href="#path0_fill"
					transform="translate(8005.5 3688.5)"
					fill="url(#paint0_linear)"
				/>
			</g>
			<g id="Union">
				<use
					xlink:href="#path1_fill"
					transform="matrix(0.707107 -0.707107 0.707107 0.707107 7991.1 3781.9)"
					fill="url(#paint1_linear)"
				/>
			</g>
		</g>
	</g>
	<defs>
		<linearGradient
			id="paint0_linear"
			x1="0"
			y1="0"
			x2="1"
			y2="0"
			gradientUnits="userSpaceOnUse"
			gradientTransform="matrix(-351.382 -351.383 22.4459 -22.446 301.78 556.609)"
		>
			<stop offset="0.502662" stop-color="#E0E1E9" />
			<stop offset="0.502762" stop-color="#EAEAEF" />
		</linearGradient>
		<linearGradient
			id="paint1_linear"
			x1="0"
			y1="0"
			x2="1"
			y2="0"
			gradientUnits="userSpaceOnUse"
			gradientTransform="matrix(454.191 1.14147e-12 7.04073e-09 114.68 -150.868 243.774)"
		>
			<stop offset="0.502662" stop-color="#E0E1E9" />
			<stop offset="0.502762" stop-color="#EAEAEF" />
		</linearGradient>
		<path
			id="path0_fill"
			fill-rule="evenodd"
			d="M 384.281 57.5426C 385.262 58.6642 385.365 60.6637 384.226 61.8397L 384.196 61.8702L 295.807 150.258L 290.857 155.208L 288.029 158.036C 283.733 162.332 283.08 168.643 288.029 173.593C 292.673 178.236 297.315 176.657 301.375 175.276L 301.384 175.273L 301.392 175.27L 301.401 175.267C 301.661 175.179 301.918 175.092 302.172 175.007C 304.293 174.3 305.707 174.3 307.121 175.714C 308.535 177.128 308.535 178.543 307.828 180.664C 307.749 180.901 307.667 181.139 307.583 181.379L 307.361 182.003C 305.982 185.872 304.492 190.056 309.242 194.806C 313.993 199.557 318.177 198.066 322.046 196.687C 322.496 196.526 322.942 196.368 323.385 196.22C 325.506 195.513 326.92 195.513 328.334 196.927C 329.748 198.341 329.748 199.756 329.042 201.877L 328.773 202.673C 327.392 206.732 325.813 211.376 330.456 216.019C 335.406 220.969 341.717 220.315 346.013 216.019L 348.841 213.191L 353.791 208.241L 442.179 119.853C 443.35 118.681 445.375 118.778 446.507 119.768C 460.259 131.367 480.844 130.685 493.798 117.731C 507.466 104.063 507.466 81.902 493.798 68.2338C 486.874 61.3099 477.769 57.8903 468.695 57.9811C 468.351 57.9811 467.988 57.9933 467.605 58.0121L 467.283 58.0267C 466.948 58.0433 466.613 58.0651 466.279 58.0914C 461.979 58.37 456.012 58.733 450.664 53.3849C 445.311 48.0326 445.679 42.0602 445.958 37.7592C 445.975 37.536 445.991 37.3129 446.005 37.0895L 446.022 36.7882L 446.035 36.4901C 446.056 36.0907 446.068 35.7113 446.068 35.3536C 446.159 26.2789 442.739 17.1754 435.815 10.2513C 422.146 -3.41711 399.986 -3.41711 386.317 10.2513C 373.364 23.205 372.682 43.7914 384.281 57.5426ZM 175.006 303.172C 175.093 302.909 175.183 302.644 175.274 302.376C 176.656 298.317 178.235 293.673 173.592 289.029C 168.642 284.079 162.331 284.734 158.036 289.029L 155.208 291.858L 150.257 296.807L 61.87 385.196C 60.6986 386.368 58.6742 386.271 57.5428 385.281L 57.538 385.286C 43.787 373.686 23.205 374.364 10.2513 387.318C -3.41711 400.986 -3.41711 423.147 10.2513 436.815C 17.1752 443.739 26.2792 447.158 35.3534 447.068C 35.515 447.068 35.6805 447.065 35.8505 447.06L 36.1381 447.05L 36.4442 447.036C 36.8861 447.018 37.328 446.992 37.7689 446.957C 42.0692 446.679 48.0365 446.316 53.3846 451.664C 58.7548 457.034 58.3666 463.029 58.0878 467.333C 58.0575 467.727 58.0336 468.12 58.0165 468.515C 57.995 468.93 57.9808 469.324 57.9808 469.695L 57.9847 469.695C 57.8934 478.77 61.3099 487.873 68.2343 494.797C 81.9022 508.466 104.063 508.466 117.731 494.797C 130.685 481.844 131.363 461.262 119.763 447.511L 119.768 447.506C 118.786 446.384 118.682 444.385 119.822 443.209L 119.852 443.178L 208.24 354.79L 213.191 349.84L 216.018 347.012C 220.314 342.716 220.968 336.405 216.018 331.456C 211.375 326.813 206.732 328.392 202.673 329.772L 202.664 329.775C 202.398 329.865 202.136 329.955 201.876 330.041C 199.755 330.748 198.341 330.748 196.927 329.334C 195.513 327.92 195.513 326.506 196.22 324.385C 196.36 323.963 196.512 323.537 196.663 323.108L 196.686 323.046C 198.065 319.176 199.556 314.993 194.806 310.243C 190.055 305.492 185.871 306.983 182.002 308.361C 181.552 308.522 181.105 308.681 180.663 308.828C 178.541 309.535 177.127 309.535 175.713 308.121C 174.299 306.707 174.299 305.293 175.006 303.172Z"
		/>
		<path
			id="path1_fill"
			fill-rule="evenodd"
			d="M 152 35.0002C 152 53.3199 137.926 68.3515 120.001 69.8738L 120.001 69.8807C 118.51 69.9796 117.019 71.3266 117 72.9694L 117 73.0001L 117.001 241.14L 117.14 241.14L 117.14 529.869C 117.546 531.111 118.774 532.039 120.001 532.121C 137.927 533.642 152.002 548.682 152.001 567.001C 152.001 586.331 136.331 602.001 117.001 602.001C 107.209 602.001 98.3526 597.982 92.0002 591.5L 91.9403 591.439L 91.7475 591.241L 91.6903 591.181C 91.5336 591.016 91.374 590.843 91.2114 590.663C 90.9345 590.361 90.6626 590.054 90.3964 589.743C 87.5511 586.504 83.5872 582 76.0009 582C 68.4621 582 64.5005 586.446 61.6586 589.682C 61.3536 590.041 61.0408 590.392 60.7212 590.738C 60.474 591.01 60.2348 591.266 60.0005 591.5C 53.6481 597.981 44.7923 602 35.0006 602C 15.671 602 0.000690534 586.33 0.000863167 567C 0.000690534 548.681 14.0752 533.642 32.0011 532.121C 33.5006 532.02 35.0006 530.657 35.0011 529C 35.0482 529 35.0943 529.001 35.1402 529.004L 35.1404 242L 35.0002 242L 35.0002 73.0003C 35.0001 71.3432 33.5 69.9803 32.0002 69.8801L 32.0006 69.8736C 14.0745 68.3515 0.000345267 53.3196 0 35.0001C 0.000345267 15.6703 15.6703 0.000345267 35.0001 0C 44.7927 0.0005179 53.6481 4.01943 60.0002 10.5003C 60.255 10.7551 60.5155 11.0346 60.7856 11.3334C 61.0653 11.6379 61.34 11.9474 61.6086 12.2616C 64.4539 15.5013 68.4179 20.0005 76.0002 20.0003C 83.5879 20.0001 87.5519 15.4947 90.3981 12.2542C 90.5183 12.114 90.6395 11.9749 90.7617 11.8368C 90.9067 11.6724 91.0535 11.5098 91.2014 11.3481C 91.3604 11.1725 91.5158 11.0033 91.6689 10.8419C 91.7808 10.7238 91.8913 10.6099 92.0005 10.5006L 92.0043 10.5023C 98.3566 4.02167 107.209 0.0005179 117 0.0005179C 136.33 0.000345267 152 15.6706 152 35.0002Z"
		/>
	</defs>
</svg>
