<?xml version="1.0" encoding="UTF-8"?>
<svg width="118px" height="118px" viewBox="0 0 118 118" version="1.1" xmlns="http://www.w3.org/2000/svg" xmlns:xlink="http://www.w3.org/1999/xlink">
    <!-- Generator: Sketch 45.1 (43504) - http://www.bohemiancoding.com/sketch -->
    <title>fractures</title>
    <desc>Created with Sketch.</desc>
    <defs></defs>
    <g id="Fractures" stroke="none" stroke-width="1" fill="none" fill-rule="evenodd">
        <g id="browsers" transform="translate(-171.000000, -203.000000)">
            <g id="fractures" transform="translate(171.000000, 203.000000)">
                <g transform="translate(0.333333, 0.333333)">
                    <circle id="Oval-29" stroke="#323156" stroke-width="16" stroke-linecap="round" stroke-linejoin="round" cx="58.6666667" cy="58.6666667" r="37.3333333"></circle>
                    <path d="M95.7838685,10.4029195 C94.0174067,7.80484958 94.2761184,4.24820383 96.5666423,1.95767994 C99.1613502,-0.637027939 103.380794,-0.624436731 105.991034,1.98580319 C107.573412,3.56818164 108.201149,5.74194596 107.872095,7.78661648 C107.894306,8.07129312 107.983343,8.6958791 108.340155,9.0526908 C108.812781,9.52531655 109.75522,9.52812887 109.75522,9.52812887 C109.75522,9.52812887 109.752213,9.52996092 109.74637,9.5335111 C111.743899,9.26152162 113.846104,9.89711945 115.387302,11.4383181 C117.997542,14.0485581 118.010134,18.2680019 115.415426,20.8627098 C113.16592,23.1122152 109.695234,23.4020279 107.110674,21.7384361 C97.3251344,31.5239756 75.6492588,53.1998517 73.909806,54.9393033 C72.4288427,56.4202655 71.6881438,57.1813074 69.799731,55.2928946 C67.9113181,53.4044818 70.8770547,51.9065519 70.1324203,51.1619175 C69.3877858,50.417283 67.9005871,53.3937507 66.0268252,51.5199888 C64.1530633,49.6462269 67.1216904,48.1511876 66.3555946,47.3850919 C65.5894988,46.6189961 64.1452231,49.6383867 62.2460795,47.7392431 C60.7905695,46.2837331 61.108537,45.0999599 62.5894998,43.6189971 C64.5117565,41.5769328 85.5560226,20.5935854 95.7838685,10.4029195 Z" id="Oval-15" fill="#E0E1EA"></path>
                    <path d="M21.676704,106.971375 C23.3986256,109.563371 23.1170024,113.093383 20.8318343,115.378551 C18.2254574,117.984928 13.9996855,117.984928 11.3933085,115.378551 C9.84874015,113.833982 9.21950042,111.720702 9.50558932,109.712759 C9.50515036,109.657403 9.4909821,108.756961 9.03367706,108.299656 C8.576372,107.842351 7.6759301,107.828183 7.62057406,107.827744 C5.61263174,108.113833 3.49935107,107.484593 1.9547827,105.940025 C-0.651594234,103.333648 -0.651594234,99.1078759 1.9547827,96.501499 C4.24003507,94.2162466 7.77022248,93.9346869 10.3622449,95.6568199 C20.2199436,85.7991209 41.9090027,64.1100614 43.6527511,62.3663142 C45.1403747,60.8786917 45.8844655,60.114288 47.7700836,61.9999061 C49.6557017,63.8855242 46.6810141,65.3945773 47.4245466,66.1381097 C48.168079,66.8816422 49.6664169,63.8962394 51.5374057,65.7672282 C53.4083945,67.6382171 50.4308207,69.1443839 51.1957827,69.9093459 C51.9607447,70.6743079 53.4162231,67.6460456 55.3125562,69.5423787 C56.7659121,70.9957346 56.443927,72.182244 54.9563039,73.6698671 C53.0290531,75.7164999 31.9739933,96.7112313 21.676704,106.971375 Z" id="Oval-16" fill="#E0E1EA"></path>
                </g>
            </g>
        </g>
    </g>
</svg>