
<svg width="661" height="561" viewBox="0 0 661 561" fill="none" xmlns="http://www.w3.org/2000/svg">
<g clip-path="url(#clip0)">
<path fill-rule="evenodd" clip-rule="evenodd" d="M657.256 437.079L330.5 315.702L3.74363 437.079L330.5 558.456L657.256 437.079ZM331.196 313.827C330.747 313.66 330.253 313.66 329.804 313.827L3.04719 435.204C1.3091 435.849 1.30908 438.308 3.04718 438.954L329.804 560.331C330.253 560.498 330.747 560.498 331.196 560.331L657.953 438.954C659.691 438.308 659.691 435.849 657.953 435.204L331.196 313.827Z" fill="#E2E2E9"/>
<path fill-rule="evenodd" clip-rule="evenodd" d="M657.256 332.584L330.5 211.206L3.74363 332.584L330.5 453.961L657.256 332.584ZM331.196 209.332C330.747 209.165 330.253 209.165 329.804 209.332L3.04719 330.709C1.3091 331.354 1.30908 333.813 3.04718 334.458L329.804 455.836C330.253 456.002 330.747 456.002 331.196 455.836L657.953 334.458C659.691 333.813 659.691 331.354 657.953 330.709L331.196 209.332Z" fill="#E2E2E9"/>
<path fill-rule="evenodd" clip-rule="evenodd" d="M657.256 228.09L330.5 106.713L3.74363 228.09L330.5 349.468L657.256 228.09ZM331.196 104.838C330.747 104.672 330.253 104.672 329.804 104.838L3.04719 226.216C1.3091 226.861 1.30908 229.32 3.04718 229.965L329.804 351.342C330.253 351.509 330.747 351.509 331.196 351.342L657.953 229.965C659.691 229.32 659.691 226.861 657.953 226.216L331.196 104.838Z" fill="#E2E2E9"/>
<path fill-rule="evenodd" clip-rule="evenodd" d="M657.256 123.595L330.5 2.21763L3.74363 123.595L330.5 244.972L657.256 123.595ZM331.196 0.342788C330.747 0.175906 330.253 0.175906 329.804 0.342788L3.04719 121.72C1.3091 122.366 1.30908 124.824 3.04718 125.47L329.804 246.847C330.253 247.014 330.747 247.014 331.196 246.847L657.953 125.47C659.691 124.824 659.691 122.366 657.953 121.72L331.196 0.342788Z" fill="#E2E2E9"/>
</g>
<defs>
<clipPath id="clip0">
<rect width="661" height="561" fill="white"/>
</clipPath>
</defs>
</svg>
